{"asset":{"version":"2.0","generator":"THREE.GLTFExporter"},"scenes":[{"nodes":[0],"name":"AuxScene"}],"scene":0,"nodes":[{"mesh":0}],"bufferViews":[{"buffer":0,"byteOffset":0,"byteLength":33768,"target":34962,"byteStride":12},{"buffer":0,"byteOffset":33768,"byteLength":33768,"target":34962,"byteStride":12}],"buffers":[{"byteLength":67536,"uri":"data:application/octet-stream;base64,"}],"accessors":[{"bufferView":0,"componentType":5126,"count":2814,"max":[100.91192626953125,4.195969104766846,100.61190795898438],"min":[-100.68809509277344,0.19596900045871735,-100.98809051513672],"type":"VEC3"},{"bufferView":1,"componentType":5126,"count":2814,"max":[0.7428447008132935,1,0.8437209725379944],"min":[-0.7256081700325012,0.41016194224357605,-0.8886572122573853],"type":"VEC3"}],"materials":[{"pbrMetallicRoughness":{"baseColorFactor":[0.5019607843137255,0.5019607843137255,0.5019607843137255,1],"metallicFactor":0,"roughnessFactor":1}}],"meshes":[{"primitives":[{"mode":4,"attributes":{"POSITION":0,"NORMAL":1},"material":0}]}]}